<svg width="24" height="25" viewBox="0 0 24 25" fill="none" xmlns="http://www.w3.org/2000/svg">
<g clip-path="url(#clip0_88_1484)">
<circle cx="12" cy="12" r="7" fill="#032F31"/>
<g filter="url(#filter0_i_88_1484)">
<path d="M12.0104 2.511C12.7882 2.51105 13.5393 2.79437 14.1234 3.308L14.2774 3.453L14.9754 4.151C15.167 4.34131 15.4171 4.46146 15.6854 4.492L15.8204 4.5H16.8204C17.6376 4.49996 18.4239 4.81257 19.018 5.37374C19.6121 5.93491 19.9689 6.70211 20.0154 7.518L20.0204 7.7V8.7C20.0204 8.97 20.1124 9.233 20.2784 9.443L20.3684 9.543L21.0654 10.241C21.6431 10.8154 21.98 11.5886 22.0073 12.4029C22.0346 13.2171 21.7503 14.0111 21.2124 14.623L21.0674 14.777L20.3694 15.475C20.1791 15.6666 20.059 15.9167 20.0284 16.185L20.0204 16.32V17.32C20.0205 18.1372 19.7078 18.9235 19.1467 19.5176C18.5855 20.1117 17.8183 20.4685 17.0024 20.515L16.8204 20.52H15.8204C15.5508 20.5201 15.2891 20.611 15.0774 20.778L14.9774 20.868L14.2794 21.565C13.705 22.1427 12.9318 22.4796 12.1175 22.5069C11.3033 22.5342 10.5093 22.2499 9.89741 21.712L9.74341 21.567L9.04541 20.869C8.85385 20.6787 8.6037 20.5585 8.33541 20.528L8.20041 20.52H7.20041C6.38319 20.52 5.59693 20.2074 5.00284 19.6463C4.40876 19.0851 4.05189 18.3179 4.00541 17.502L4.00041 17.32V16.32C4.00032 16.0504 3.90944 15.7887 3.74241 15.577L3.65241 15.477L2.95541 14.779C2.37769 14.2046 2.04083 13.4314 2.01352 12.6171C1.9862 11.8029 2.27049 11.0089 2.80841 10.397L2.95341 10.243L3.65141 9.545C3.84172 9.35344 3.96187 9.10329 3.99241 8.835L4.00041 8.7V7.7L4.00541 7.518C4.05006 6.73345 4.38184 5.99275 4.9375 5.43709C5.49316 4.88143 6.23386 4.54965 7.01841 4.505L7.20041 4.5H8.20041C8.47003 4.49991 8.73176 4.40903 8.94341 4.242L9.04341 4.152L9.74141 3.455C10.0387 3.15589 10.3923 2.91851 10.7817 2.7565C11.1711 2.5945 11.5887 2.51106 12.0104 2.511ZM15.7074 9.793C15.5199 9.60553 15.2656 9.50022 15.0004 9.50022C14.7352 9.50022 14.4809 9.60553 14.2934 9.793L11.0004 13.085L9.70741 11.793L9.61341 11.71C9.41242 11.5546 9.15981 11.4815 8.90689 11.5056C8.65396 11.5297 8.41969 11.6492 8.25166 11.8397C8.08363 12.0303 7.99443 12.2777 8.00218 12.5316C8.00994 12.7856 8.11406 13.027 8.29341 13.207L10.2934 15.207L10.3874 15.29C10.5798 15.4393 10.8201 15.5132 11.0631 15.4979C11.3061 15.4826 11.5352 15.3792 11.7074 15.207L15.7074 11.207L15.7904 11.113C15.9397 10.9206 16.0136 10.6803 15.9983 10.4373C15.983 10.1943 15.8796 9.9652 15.7074 9.793Z" fill="#A47000"/>
<path d="M12.0104 2.511C12.7882 2.51105 13.5393 2.79437 14.1234 3.308L14.2774 3.453L14.9754 4.151C15.167 4.34131 15.4171 4.46146 15.6854 4.492L15.8204 4.5H16.8204C17.6376 4.49996 18.4239 4.81257 19.018 5.37374C19.6121 5.93491 19.9689 6.70211 20.0154 7.518L20.0204 7.7V8.7C20.0204 8.97 20.1124 9.233 20.2784 9.443L20.3684 9.543L21.0654 10.241C21.6431 10.8154 21.98 11.5886 22.0073 12.4029C22.0346 13.2171 21.7503 14.0111 21.2124 14.623L21.0674 14.777L20.3694 15.475C20.1791 15.6666 20.059 15.9167 20.0284 16.185L20.0204 16.32V17.32C20.0205 18.1372 19.7078 18.9235 19.1467 19.5176C18.5855 20.1117 17.8183 20.4685 17.0024 20.515L16.8204 20.52H15.8204C15.5508 20.5201 15.2891 20.611 15.0774 20.778L14.9774 20.868L14.2794 21.565C13.705 22.1427 12.9318 22.4796 12.1175 22.5069C11.3033 22.5342 10.5093 22.2499 9.89741 21.712L9.74341 21.567L9.04541 20.869C8.85385 20.6787 8.6037 20.5585 8.33541 20.528L8.20041 20.52H7.20041C6.38319 20.52 5.59693 20.2074 5.00284 19.6463C4.40876 19.0851 4.05189 18.3179 4.00541 17.502L4.00041 17.32V16.32C4.00032 16.0504 3.90944 15.7887 3.74241 15.577L3.65241 15.477L2.95541 14.779C2.37769 14.2046 2.04083 13.4314 2.01352 12.6171C1.9862 11.8029 2.27049 11.0089 2.80841 10.397L2.95341 10.243L3.65141 9.545C3.84172 9.35344 3.96187 9.10329 3.99241 8.835L4.00041 8.7V7.7L4.00541 7.518C4.05006 6.73345 4.38184 5.99275 4.9375 5.43709C5.49316 4.88143 6.23386 4.54965 7.01841 4.505L7.20041 4.5H8.20041C8.47003 4.49991 8.73176 4.40903 8.94341 4.242L9.04341 4.152L9.74141 3.455C10.0387 3.15589 10.3923 2.91851 10.7817 2.7565C11.1711 2.5945 11.5887 2.51106 12.0104 2.511ZM15.7074 9.793C15.5199 9.60553 15.2656 9.50022 15.0004 9.50022C14.7352 9.50022 14.4809 9.60553 14.2934 9.793L11.0004 13.085L9.70741 11.793L9.61341 11.71C9.41242 11.5546 9.15981 11.4815 8.90689 11.5056C8.65396 11.5297 8.41969 11.6492 8.25166 11.8397C8.08363 12.0303 7.99443 12.2777 8.00218 12.5316C8.00994 12.7856 8.11406 13.027 8.29341 13.207L10.2934 15.207L10.3874 15.29C10.5798 15.4393 10.8201 15.5132 11.0631 15.4979C11.3061 15.4826 11.5352 15.3792 11.7074 15.207L15.7074 11.207L15.7904 11.113C15.9397 10.9206 16.0136 10.6803 15.9983 10.4373C15.983 10.1943 15.8796 9.9652 15.7074 9.793Z" fill="url(#paint0_linear_88_1484)"/>
</g>
<path d="M12.0107 2.91139C12.6912 2.91152 13.3484 3.15931 13.8594 3.60866V3.60768L14.0029 3.7444L14.6934 4.43483C14.9488 4.68858 15.2829 4.84918 15.6406 4.88991L15.6514 4.89088H15.6621L15.7969 4.89967H16.8203C17.5353 4.89963 18.2234 5.1734 18.7432 5.66432C19.26 6.15254 19.5707 6.81924 19.6143 7.52858H19.6152L19.6201 7.7112V8.70045C19.6202 9.06048 19.7433 9.41036 19.9648 9.69069L19.9727 9.70143L19.9814 9.71022L20.0713 9.81081L20.0781 9.81862L20.085 9.82545L20.7822 10.5237L20.7832 10.5247C21.2887 11.0273 21.5835 11.7038 21.6074 12.4163C21.6313 13.1275 21.3831 13.8207 20.9141 14.3557L20.7842 14.4944L20.0869 15.1926H20.0859C19.8322 15.4481 19.6716 15.7822 19.6309 16.1399L19.6289 16.1614L19.6211 16.2962L19.6201 16.3079V17.3196C19.6202 18.0346 19.3465 18.7226 18.8555 19.2424C18.3644 19.7623 17.6934 20.0748 16.9795 20.1155L16.8096 20.1204H15.8203L15.6865 20.1253C15.375 20.1515 15.0771 20.2693 14.8301 20.4641L14.8193 20.4719L14.8096 20.4807L14.71 20.5706L14.7021 20.5774L14.6943 20.5852L13.9971 21.2815L13.9961 21.2825C13.4935 21.7879 12.8168 22.0827 12.1045 22.1067C11.392 22.1306 10.6965 21.8821 10.1611 21.4114L10.0176 21.2757L9.32715 20.5852C9.07178 20.3316 8.73848 20.1709 8.38086 20.1301L8.37012 20.1292H8.35938L8.22363 20.1204H7.2002C6.48521 20.1204 5.79711 19.8467 5.27734 19.3557C4.75929 18.8664 4.44667 18.1978 4.4043 17.4866L4.40039 17.3089V16.3196C4.40021 15.9603 4.27918 15.6115 4.05664 15.3294L4.04883 15.3186L4.04004 15.3098L3.9502 15.2092L3.93555 15.1946L3.23828 14.4964L3.2373 14.4954L3.05762 14.2991C2.66227 13.8231 2.43401 13.2271 2.41309 12.6038C2.39218 11.9805 2.57998 11.3707 2.94238 10.8694L3.1084 10.6614L3.24512 10.5169L3.93555 9.82643C4.18905 9.57107 4.34894 9.23766 4.38965 8.88014L4.3916 8.85866L4.39941 8.72389L4.40039 8.71217V7.7112L4.40527 7.52858C4.44706 6.8466 4.73737 6.20332 5.2207 5.71999C5.70686 5.23391 6.35465 4.94365 7.04102 4.90456L7.04004 4.90358L7.21094 4.89967H8.2002C8.55969 4.89956 8.90921 4.77863 9.19141 4.55592L9.20117 4.54811L9.21094 4.53932L9.31055 4.44948L9.31836 4.44264L9.32617 4.43483L10.0244 3.73756L10.0254 3.73659C10.2855 3.47503 10.595 3.26793 10.9355 3.12624C11.2763 2.98449 11.6417 2.91145 12.0107 2.91139ZM15 9.09987C14.629 9.09998 14.2732 9.24773 14.0107 9.51003L11 12.5188L9.99023 11.51L9.98145 11.5012L9.97168 11.4934L9.87793 11.4104L9.86816 11.4016L9.8584 11.3938L9.74902 11.3176C9.48805 11.1528 9.17887 11.0782 8.86914 11.1077C8.51505 11.1414 8.18642 11.3087 7.95117 11.5755C7.71615 11.8422 7.59169 12.1888 7.60254 12.5442C7.61349 12.8996 7.75882 13.2377 8.00977 13.4895H8.01074L10.0283 15.5071L10.123 15.5901L10.1318 15.5979L10.1426 15.6057C10.4119 15.8146 10.7478 15.9181 11.0879 15.8967C11.4281 15.8754 11.7492 15.7306 11.9902 15.4895L15.999 11.4807L16.0068 11.4719L16.0898 11.3782L16.0986 11.3684L16.1064 11.3587C16.3154 11.0893 16.4188 10.7526 16.3975 10.4124C16.3787 10.1146 16.2658 9.83135 16.0762 9.60378L15.9902 9.51003C15.7277 9.24759 15.3712 9.09987 15 9.09987Z" stroke="url(#paint1_linear_88_1484)" stroke-width="0.8"/>
</g>
<defs>
<filter id="filter0_i_88_1484" x="2.01172" y="2.511" width="19.9971" height="19.9977" filterUnits="userSpaceOnUse" color-interpolation-filters="sRGB">
<feFlood flood-opacity="0" result="BackgroundImageFix"/>
<feBlend mode="normal" in="SourceGraphic" in2="BackgroundImageFix" result="shape"/>
<feColorMatrix in="SourceAlpha" type="matrix" values="0 0 0 0 0 0 0 0 0 0 0 0 0 0 0 0 0 0 127 0" result="hardAlpha"/>
<feOffset/>
<feGaussianBlur stdDeviation="7"/>
<feComposite in2="hardAlpha" operator="arithmetic" k2="-1" k3="1"/>
<feColorMatrix type="matrix" values="0 0 0 0 0.901575 0 0 0 0 0.587343 0 0 0 0 0.0445783 0 0 0 0.65 0"/>
<feBlend mode="normal" in2="shape" result="effect1_innerShadow_88_1484"/>
</filter>
<linearGradient id="paint0_linear_88_1484" x1="12.0104" y1="2.511" x2="12.0104" y2="22.5087" gradientUnits="userSpaceOnUse">
<stop stop-color="#FFE9B8"/>
<stop offset="1" stop-color="#F0B638"/>
</linearGradient>
<linearGradient id="paint1_linear_88_1484" x1="12.0104" y1="2.511" x2="12.0104" y2="22.5087" gradientUnits="userSpaceOnUse">
<stop stop-color="#FBF0DE"/>
<stop offset="1" stop-color="#FEE8BA"/>
</linearGradient>
<clipPath id="clip0_88_1484">
<rect width="24" height="24" fill="white" transform="translate(0 0.5)"/>
</clipPath>
</defs>
</svg>
