<svg width="25" height="25" viewBox="0 0 25 25" fill="none" xmlns="http://www.w3.org/2000/svg">
<g clip-path="url(#clip0_88_1462)">
<path d="M9.5 3.5C9.67928 3.49995 9.85528 3.5481 10.0096 3.63941C10.1639 3.73071 10.2908 3.86182 10.377 4.019L10.428 4.129L12.428 9.129C12.5086 9.33016 12.5216 9.55204 12.4651 9.76125C12.4087 9.97045 12.2858 10.1557 12.115 10.289L12.015 10.357L10.341 11.361L10.404 11.464C11.2008 12.729 12.271 13.7992 13.536 14.596L13.638 14.658L14.643 12.986C14.7544 12.8001 14.9231 12.6554 15.1239 12.5737C15.3246 12.492 15.5464 12.4777 15.756 12.533L15.871 12.572L20.871 14.572C21.0375 14.6384 21.1831 14.7484 21.2925 14.8903C21.4019 15.0323 21.4712 15.2011 21.493 15.379L21.5 15.5V19.5C21.5 21.157 20.157 22.5 18.44 22.498C9.861 21.977 3.022 15.138 2.5 6.5C2.49996 5.73479 2.79233 4.99849 3.31728 4.44174C3.84224 3.88499 4.56011 3.54989 5.324 3.505L5.5 3.5H9.5Z" fill="black"/>
</g>
<defs>
<clipPath id="clip0_88_1462">
<rect width="24" height="24" fill="white" transform="translate(0.5 0.5)"/>
</clipPath>
</defs>
</svg>
